<?xml version="1.0" encoding="iso-8859-1"?>
<!-- Uploaded to: SVG Repo, www.svgrepo.com, Generator: SVG Repo Mixer Tools -->
<svg height="800px" width="800px" version="1.1" id="Layer_1" xmlns="http://www.w3.org/2000/svg" xmlns:xlink="http://www.w3.org/1999/xlink" 
	 viewBox="0 0 500 500" xml:space="preserve">
<path style="fill:#EF934A;" d="M416,28.8C416,13.6,405.2,2,390,2H61.6C46.4,2,32,13.6,32,28.8v3.6V74v14v214.4v17.2v41.6
	c0,15.2,14.4,25.6,29.6,25.6h362.8c15.2,0,27.6-10.4,27.6-25.6V262h3.6c7.6,0,12.4-4.4,12.4-12v-55.2c0-7.6-4.8-12.4-12.4-12.4H452
	V164V88V70c0-15.2-12.4-28-27.6-28H416L416,28.8L416,28.8z"/>
<path style="fill:#E8BB85;" d="M408,339.6c0,3.6-0.4,6.4-4.4,6.4H44.8L34,334.8L32,102h371.6c4,0,4.4,2.4,4.4,6V339.6z"/>
<path style="fill:#E07D46;" d="M464,252c0,7.6-6,14-14,14H321.6c-7.6,0-14-6-14-14v-56.4c0-7.6,6-14,14-14H450c7.6,0,14,6,14,14
	L464,252L464,252z"/>
<circle style="fill:#B44F2B;" cx="360" cy="218" r="24"/>
<path style="fill:#E07D46;" d="M425.2,46.4C423.6,32.8,412,22,398,22H71.6c-6.8,0-12,5.6-12,12.4s5.6,12,12,12H425.2z"/>
<path style="fill:#DF5C4E;" d="M146.8,384.4c0,62.4,50.4,112.8,112.8,112.8s112.8-50.4,112.8-112.8S322,271.6,259.6,271.6
	S146.8,322,146.8,384.4z"/>
<path d="M298,429.2c-1.2,0-2-0.4-2.8-1.2l-76.4-76.4c-1.6-1.6-1.6-4,0-5.6s4-1.6,5.6,0l76.4,76.4c1.6,1.6,1.6,4,0,5.6
	C300,428.8,299.2,429.2,298,429.2z"/>
<path d="M221.6,429.2c-1.2,0-2-0.4-2.8-1.2c-1.6-1.6-1.6-4,0-5.6l76.4-76.4c1.6-1.6,4-1.6,5.6,0s1.6,4,0,5.6L224.4,428
	C223.6,428.8,222.8,429.2,221.6,429.2z"/>
<path d="M144,392H69.6C52,392,30,377.2,30,360.4V82c0-2.4,1.6-4,4-4s4,1.6,4,4v278.4c0,12.4,17.6,23.6,31.6,23.6H144
	c2.4,0,4,1.6,4,4S146.4,392,144,392z"/>
<path d="M430.8,392H372c-2.4,0-4-1.6-4-4s1.6-4,4-4h58.8c7.2,0,15.2-2.8,15.2-23.6V266c0-2.4,1.6-4,4-4s4,1.6,4,4v94.4
	C454,386.4,441.2,392,430.8,392z"/>
<path d="M450,182c-2.4,0-4-1.6-4-4V85.6c0-14-3.2-17.6-15.2-17.6H66c-22.4,0-36-4.4-36-25.2c0-2.4,1.6-4,4-4s4,1.6,4,4
	c0,12,4,17.2,28,17.2h364.8c20.4,0,23.2,12.4,23.2,25.6V178C454,180.4,452.4,182,450,182z"/>
<path d="M34,302c-2.4,0-4-1.6-4-4V25.6C30,6.8,53.6,0,69.6,0h326.8c18.8,0,22.4,9.2,22.4,24.8c0,2.4-1.6,4-4,4s-4-1.6-4-4
	c0-14-2.4-16.8-14.4-16.8H69.6C56.4,8,38,13.6,38,25.6V298C38,300.4,36.4,302,34,302z"/>
<path d="M450,162c-2.4,0-4-1.6-4-4V70c0-14-3.2-18-15.2-18H70c-7.6,0-13.2-7.6-13.2-18S62,16,70,16h326.4c16,0,29.2,12,31.2,27.6V44
	h3.2c20.4,0,23.2,12.4,23.2,26v88C454,160.4,452.4,162,450,162z M70,24c-3.2,0-5.2,5.2-5.2,10s2,10,5.2,10h349.6
	C418,32.4,408,24,396.4,24H70z"/>
<path d="M452.4,268H324c-9.6,0-17.6-8-17.6-17.6V198c0-9.6,8-17.6,17.6-17.6h128.4c9.6,0,17.6,8,17.6,17.6v52.4
	C470,260,462,268,452.4,268z M323.6,188c-5.2,0-9.6,4.4-9.6,9.6V250c0,5.2,4.4,9.6,9.6,9.6H452c5.2,0,9.6-4.4,9.6-9.6v-52.4
	c0-5.2-4.4-9.6-9.6-9.6H323.6z"/>
<path d="M359.2,247.2c-15.6,0-28-12.4-28-28s12.8-28,28-28s28,12.4,28,28S374.8,247.2,359.2,247.2z M359.2,198.8
	c-11.2,0-20,9.2-20,20s9.2,20,20,20c11.2,0,20-9.2,20-20S370.4,198.8,359.2,198.8z"/>
<path d="M359.2,231.2c-6.8,0-12-5.2-12-12s5.2-12,12-12c2.4,0,4,1.6,4,4s-1.6,4-4,4s-4,1.6-4,4s1.6,4,4,4s4-1.6,4-4s1.6-4,4-4
	s4,1.6,4,4C371.2,225.6,365.6,231.2,359.2,231.2z"/>
<path d="M148,352H61.6C44,352,30,338.4,30,321.6c0-2.4,1.6-4,4-4s4,1.6,4,4c0,12.8,10.4,22.4,23.6,22.4H148c2.4,0,4,1.6,4,4
	S150.4,352,148,352z"/>
<path d="M408,352h-40c-2.4,0-4-1.6-4-4s1.6-4,4-4h36l-1.2-78c0-2.4,1.6-4,4-4c2,0,4,1.6,4,4l1.6,82c0,1.2-0.4,2-1.2,2.8
	C410,351.6,409.2,352,408,352z"/>
<path d="M408,162.4L408,162.4c-2.4,0-4-2-4-4l0.4-50.4H62.8c-9.6,0-19.6,0-26.4-6.4C32,97.2,30,91.2,30,82.4c0-2.4,1.6-4,4-4
	s4,1.6,4,4c0,6.4,1.2,10.8,4,13.6c4.4,4.4,12.4,4,20.8,4H66h342.4c1.2,0,2,0.4,2.8,1.2c0.8,0.8,1.2,1.6,1.2,2.8l-0.4,54.4
	C412,160.8,410,162.4,408,162.4z"/>
<path d="M258.8,500c-64,0-116.4-52-116.4-116.4s52-116.4,116.4-116.4s116.4,52,116.4,116.4S322.8,500,258.8,500z M258.8,275.6
	c-59.6,0-108.4,48.4-108.4,108.4c0,59.6,48.4,108.4,108.4,108.4c59.6,0,108.4-48.4,108.4-108.4S318.4,275.6,258.8,275.6z"/>
</svg>